<?xml version="1.0" encoding="UTF-8"?>
<svg id="Layer_2" data-name="Layer 2" xmlns="http://www.w3.org/2000/svg" xmlns:xlink="http://www.w3.org/1999/xlink" viewBox="0 0 1336.42 398.85">
  <defs>
    <style>
      .cls-1 {
        fill: url(#linear-gradient-5);
      }

      .cls-2 {
        fill: url(#linear-gradient-6);
      }

      .cls-3 {
        fill: url(#linear-gradient-4);
      }

      .cls-4 {
        fill: url(#linear-gradient-3);
      }

      .cls-5 {
        fill: url(#linear-gradient-2);
      }

      .cls-6 {
        fill: #231f20;
      }

      .cls-7 {
        fill: url(#linear-gradient);
      }

      .cls-8 {
        fill: #100329;
      }
    </style>
    <linearGradient id="linear-gradient" x1="-9.11" y1="103.66" x2="1316.65" y2="335.99" gradientUnits="userSpaceOnUse">
      <stop offset="0" stop-color="#61c9da"/>
      <stop offset=".34" stop-color="#6b99d1"/>
      <stop offset=".78" stop-color="#976aad"/>
    </linearGradient>
    <linearGradient id="linear-gradient-2" x1="-1.82" y1="62.08" x2="1323.94" y2="294.42" xlink:href="#linear-gradient"/>
    <linearGradient id="linear-gradient-3" x1="5.17" y1="22.18" x2="1330.93" y2="254.52" xlink:href="#linear-gradient"/>
    <linearGradient id="linear-gradient-4" x1="13.34" y1="-24.44" x2="1339.1" y2="207.9" xlink:href="#linear-gradient"/>
    <linearGradient id="linear-gradient-5" x1="22.57" y1="-77.09" x2="1348.33" y2="155.25" xlink:href="#linear-gradient"/>
    <linearGradient id="linear-gradient-6" x1="1186.09" y1="382.76" x2="1232.38" y2="382.76" xlink:href="#linear-gradient"/>
  </defs>
  <g id="Layer_1-2" data-name="Layer 1">
    <g>
      <g>
        <path class="cls-7" d="M241.39,0v56.58H84.86c-18.86,0-28.29,9.43-28.29,28.29v94.3c0,18.86,9.43,28.29,28.29,28.29h156.53v56.58H75.44C24.89,264.03,0,239.13,0,188.59v-113.15C0,24.9,24.89,0,75.44,0h165.96Z"/>
        <path class="cls-5" d="M459.8,103.72v-18.86c0-18.86-9.43-28.29-28.29-28.29h-115.04V0h124.47C491.48,0,516.38,24.9,516.38,75.44v188.59h-165.96c-104.85,0-104.48-160.3,0-160.3h109.38ZM459.8,207.45v-47.15h-99.95c-38.1,0-38.1,47.15,0,47.15h99.95Z"/>
        <path class="cls-4" d="M546.57,179.16c0-50.54,24.89-75.44,75.44-75.44h85.99c32.06,0,32.44-47.15,0-47.15h-161.43V0h161.43c110.13,0,109.76,160.3,0,160.3h-76.57c-18.86,0-28.29,9.43-28.29,28.29v75.44h-56.58v-84.86Z"/>
        <path class="cls-3" d="M820.8,179.16c0-50.54,24.89-75.44,75.43-75.44h86c32.06,0,32.44-47.15,0-47.15h-161.43V0h161.43C1061.06,0,1083.31,82.6,1048.99,128.99c8.68,12.45,13.2,29.05,13.2,50.17v84.86h-56.58v-75.44c0-18.86-9.43-28.29-28.29-28.29h-71.66c-18.86,0-28.29,9.43-28.29,28.29v75.44h-56.58v-84.86Z"/>
        <path class="cls-1" d="M1260.99,0h-90.52c-50.54,0-75.43,24.9-75.43,75.44v113.15c0,50.54,24.89,75.44,75.43,75.44h90.52c50.54,0,75.44-24.89,75.44-75.44v-113.15c0-50.54-24.89-75.44-75.44-75.44ZM1309.93,65.54c2.1,2.35,3.97,4.91,5.66,7.57,2.55,4.03,4.67,8.34,6.36,12.8,3.81,10.03,4.12,19.25.55,29.33-3.13,8.84-7.83,17.21-14.5,23.87-10.61,10.59-25.03,15.77-39.79,16.91-7.16.56-14.37.24-21.5-.63-4.26-.52-8.49-1.25-12.69-2.13-4.34-.91-9.19-3.1-13.56-3.39,0,0,53.65,3.74,87.1-86.78-.05.15,2.22,2.26,2.38,2.43ZM1233.49,19.16c3.15.18,6.28.66,9.36,1.36,4.66,1.05,9.2,2.59,13.55,4.55,9.78,4.4,16.52,10.7,21.13,20.35,4.04,8.47,6.63,17.71,6.62,27.14-.01,14.99-6.55,28.85-16.17,40.09-4.67,5.46-9.99,10.33-15.65,14.75-3.38,2.64-6.89,5.13-10.48,7.47-3.71,2.42-8.69,4.31-11.99,7.19,0,0,40.58-35.29.23-122.95.07.14,3.16.03,3.4.04ZM1146.64,40.42c2.35-2.1,4.91-3.97,7.57-5.66,4.03-2.55,8.34-4.67,12.8-6.36,10.03-3.81,19.25-4.12,29.33-.55,8.84,3.13,17.21,7.83,23.87,14.5,10.59,10.61,15.77,25.03,16.91,39.79.56,7.16.24,14.37-.63,21.5-.52,4.26-1.25,8.49-2.13,12.69-.91,4.34-3.1,9.19-3.39,13.56,0,0,3.74-53.65-86.78-87.1.15.05,2.26-2.22,2.43-2.38ZM1100.26,116.86c.18-3.15.66-6.28,1.36-9.36,1.05-4.66,2.59-9.2,4.55-13.55,4.4-9.78,10.7-16.52,20.35-21.13,8.47-4.04,17.71-6.63,27.14-6.62,14.99.01,28.85,6.55,40.09,16.17,5.46,4.67,10.33,9.99,14.75,15.65,2.64,3.38,5.13,6.89,7.47,10.48,2.42,3.71,4.31,8.69,7.19,11.99,0,0-35.29-40.58-122.95-.23.14-.07.03-3.17.04-3.4ZM1121.52,203.71c-2.1-2.35-3.97-4.91-5.66-7.57-2.55-4.03-4.67-8.34-6.36-12.8-3.81-10.03-4.12-19.25-.55-29.33,3.13-8.84,7.83-17.21,14.5-23.87,10.61-10.59,25.03-15.77,39.79-16.91,7.16-.56,14.37-.24,21.5.63,4.26.52,8.49,1.25,12.69,2.13,4.34.91,9.19,3.1,13.56,3.39,0,0-53.65-3.74-87.1,86.78.05-.15-2.22-2.26-2.38-2.43ZM1197.97,250.09c-3.15-.18-6.28-.66-9.36-1.36-4.66-1.05-9.2-2.59-13.55-4.55-9.78-4.4-16.52-10.7-21.13-20.35-4.04-8.47-6.63-17.71-6.62-27.14.01-14.99,6.55-28.85,16.17-40.09,4.67-5.46,9.99-10.33,15.65-14.75,3.38-2.64,6.89-5.13,10.48-7.47,3.71-2.42,8.69-4.31,11.99-7.19,0,0-40.58,35.29-.23,122.95-.07-.14-3.16-.03-3.4-.04ZM1284.82,228.83c-2.35,2.1-4.91,3.97-7.57,5.66-4.03,2.55-8.34,4.67-12.8,6.36-10.03,3.81-19.25,4.12-29.33.55-8.84-3.13-17.21-7.83-23.87-14.5-10.59-10.61-15.77-25.03-16.91-39.79-.56-7.16-.24-14.37.63-21.5.52-4.26,1.25-8.49,2.13-12.69.91-4.34,3.1-9.19,3.39-13.56,0,0-3.74,53.65,86.78,87.1-.15-.05-2.26,2.22-2.43,2.38ZM1331.19,152.39c-.18,3.15-.66,6.28-1.36,9.36-1.05,4.66-2.59,9.2-4.55,13.55-4.4,9.78-10.7,16.52-20.35,21.13-8.47,4.04-17.71,6.63-27.14,6.62-14.99-.01-28.85-6.55-40.09-16.17-5.46-4.67-10.33-9.99-14.75-15.65-2.64-3.38-5.13-6.89-7.47-10.48-2.42-3.71-4.31-8.69-7.19-11.99,0,0,35.29,40.58,122.95.23-.14.07-.03,3.16-.04,3.4Z"/>
      </g>
      <g>
        <g>
          <g>
            <path class="cls-8" d="M1059.44,360.77c0,20.75-16.84,37.59-37.5,37.59s-37.59-16.84-37.59-37.59,16.84-37.5,37.59-37.5,37.5,16.84,37.5,37.5ZM1048.97,360.77c0-14.84-12.2-27.03-27.03-27.03s-27.03,12.2-27.03,27.03,12.11,27.03,27.03,27.03,27.03-12.11,27.03-27.03Z"/>
            <polygon class="cls-8" points="1311.83 398.36 1300.66 398.36 1275.51 334.95 1250.36 398.36 1239.19 398.36 1269.23 322.6 1281.78 322.6 1311.83 398.36"/>
            <rect class="cls-8" x="1326.04" y="323.27" width="10.38" height="75.09"/>
            <rect class="cls-8" x="935.46" y="323.27" width="10.38" height="75.09"/>
            <rect class="cls-8" x="910.62" y="323.36" width="60.07" height="10.38"/>
          </g>
          <rect class="cls-8" x="1073.09" y="368.37" width="10.39" height="29.99"/>
          <path class="cls-8" d="M1136.27,398.36h-.1l-25.4-31.49s-.06-.07-.07-.11l25.57,31.61Z"/>
          <g>
            <polygon class="cls-2" points="1232.38 398.56 1217.68 398.56 1210.33 391.2 1210.12 391 1202.61 383.49 1202.41 383.28 1186.09 366.96 1200.78 366.96 1209.96 376.15 1217.46 383.65 1217.67 383.85 1224.12 390.31 1228.57 394.76 1228.57 394.76 1232.38 398.56"/>
            <g>
              <path class="cls-8" d="M1210.12,391l.21.21h-.01s-7.92-7.92-7.92-7.92c0,0,0,0,.01,0l.21.21,7.51,7.51Z"/>
              <path class="cls-8" d="M1209.76,375.93l7.91,7.92h0s-.21-.2-.21-.2l-7.5-7.5-.21-.21s0,0,0-.01Z"/>
              <path class="cls-8" d="M1225.34,361.02c0,2.04-.16,4.06-.47,5.99-.81,5.12-2.7,10.07-5.53,14.45l-8.06-8.07h0c1.07-2.05,1.87-4.22,2.37-6.5.43-1.95.66-3.93.66-5.89,0-14.78-12.02-26.79-26.8-26.79s-26.8,12.02-26.8,26.79c0,1.97.22,3.95.66,5.89,2.71,12.11,13.71,20.9,26.14,20.9,4.34,0,8.56-1.04,12.35-3.02l8.07,8.09c-5.95,3.83-12.78,5.88-19.94,5.97h-.97c-18.48-.23-33.99-13.62-36.88-31.84-.32-1.95-.48-3.97-.48-5.99,0-20.86,16.97-37.83,37.84-37.83s37.83,16.97,37.83,37.83Z"/>
            </g>
          </g>
          <path class="cls-8" d="M1136.17,398.36h-13.61c-.92-1.13-1.83-2.26-2.74-3.39-2.12-2.62-4.24-5.24-6.36-7.86-.34-.42-.67-.83-1-1.25l-5.42-6.07-.18-.21-6.71-7.51-.18-.21-14.57-16.31h13.12l.02.03h13.24c6.1,0,11.11-5.1,10.92-11.28-.18-5.92-5.45-10.56-11.37-10.56h-38.23v-10.47h38.68c12.65,0,22.67,10.92,21.3,23.75-1.19,11.02-10.93,19.03-21.94,19.03-.32,0-.57.42-.43.7.01.04.04.08.07.11l25.39,31.49Z"/>
        </g>
        <g>
          <path class="cls-6" d="M826.84,341.41c.74-.48,1.85-.98,3.35-1.5s3.22-.78,5.17-.78c2.43,0,4.59.43,6.47,1.3,1.89.87,3.48,2.08,4.78,3.64,1.3,1.56,2.29,3.42,2.96,5.59.67,2.17,1.01,4.55,1.01,7.15,0,2.73-.4,5.19-1.2,7.38-.8,2.19-1.94,4.04-3.41,5.56-1.48,1.52-3.25,2.69-5.33,3.51-2.08.82-4.42,1.23-7.02,1.23-2.82,0-5.31-.19-7.48-.59-2.17-.39-3.94-.78-5.33-1.17v-48.44l6.04-1.04v18.14ZM826.84,368.46c.61.17,1.46.34,2.57.49,1.11.15,2.48.23,4.13.23,3.25,0,5.85-1.07,7.8-3.22,1.95-2.14,2.93-5.19,2.93-9.13,0-1.73-.17-3.36-.52-4.88-.35-1.51-.91-2.83-1.69-3.93-.78-1.1-1.79-1.97-3.02-2.6-1.23-.63-2.72-.94-4.45-.94s-3.16.28-4.55.85c-1.39.56-2.45,1.15-3.19,1.75v21.39Z"/>
          <path class="cls-6" d="M854.28,380.03c.48.22,1.1.42,1.85.62.76.19,1.5.29,2.24.29,2.38,0,4.25-.53,5.59-1.59,1.34-1.06,2.56-2.79,3.64-5.17-2.73-5.2-5.28-10.71-7.64-16.54-2.36-5.83-4.33-11.74-5.89-17.72h6.5c.47,1.95,1.05,4.06,1.72,6.31s1.42,4.57,2.24,6.96c.82,2.38,1.71,4.77,2.67,7.15.95,2.38,1.95,4.68,2.99,6.89,1.65-4.55,3.08-9.06,4.29-13.52,1.21-4.46,2.36-9.06,3.45-13.78h6.24c-1.56,6.37-3.3,12.5-5.2,18.37-1.91,5.87-3.97,11.37-6.18,16.48-.87,1.95-1.76,3.63-2.7,5.04-.93,1.41-1.96,2.57-3.09,3.48-1.13.91-2.4,1.58-3.8,2.02-1.41.43-3.01.65-4.78.65-.48,0-.97-.03-1.5-.1-.52-.07-1.03-.15-1.53-.26-.5-.11-.96-.23-1.37-.36-.41-.13-.71-.24-.88-.33l1.1-4.88Z"/>
        </g>
      </g>
    </g>
  </g>
</svg>