<?xml version="1.0" encoding="UTF-8"?>
<svg id="Layer_2" data-name="Layer 2" xmlns="http://www.w3.org/2000/svg" xmlns:xlink="http://www.w3.org/1999/xlink" viewBox="0 0 95 95">
  <defs>
    <style>
      .cls-1 {
        fill: url(#linear-gradient-8);
      }

      .cls-2 {
        fill: url(#linear-gradient-7);
      }

      .cls-3 {
        fill: url(#linear-gradient-5);
      }

      .cls-4 {
        fill: url(#linear-gradient-6);
      }

      .cls-5 {
        fill: url(#linear-gradient-4);
      }

      .cls-6 {
        fill: url(#linear-gradient-3);
      }

      .cls-7 {
        fill: url(#linear-gradient-2);
      }

      .cls-8 {
        fill: url(#linear-gradient);
      }
    </style>
    <linearGradient id="linear-gradient" x1="19.52" y1="-11.9" x2="106.68" y2="75.25" gradientUnits="userSpaceOnUse">
      <stop offset="0" stop-color="#70c7dc"/>
      <stop offset=".34" stop-color="#759dd3"/>
      <stop offset=".78" stop-color="#a068a9"/>
    </linearGradient>
    <linearGradient id="linear-gradient-2" x1="20.39" y1="-12.77" x2="107.54" y2="74.39" xlink:href="#linear-gradient"/>
    <linearGradient id="linear-gradient-3" x1="15.81" y1="-8.19" x2="102.97" y2="78.96" xlink:href="#linear-gradient"/>
    <linearGradient id="linear-gradient-4" x1="-3.44" y1="11.06" x2="83.72" y2="98.21" xlink:href="#linear-gradient"/>
    <linearGradient id="linear-gradient-5" x1="-11.9" y1="19.52" x2="75.25" y2="106.68" xlink:href="#linear-gradient"/>
    <linearGradient id="linear-gradient-6" x1="-12.77" y1="20.39" x2="74.39" y2="107.54" xlink:href="#linear-gradient"/>
    <linearGradient id="linear-gradient-7" x1="-8.19" y1="15.81" x2="78.96" y2="102.97" xlink:href="#linear-gradient"/>
    <linearGradient id="linear-gradient-8" x1="11.06" y1="-3.44" x2="98.21" y2="83.72" xlink:href="#linear-gradient"/>
  </defs>
  <g id="Layer_1-2" data-name="Layer 1">
    <g>
      <path class="cls-8" d="M49.45,53.77c1.8.12,3.79,1.02,5.58,1.39,1.73.36,3.47.66,5.22.87,2.93.36,5.9.49,8.84.26,6.07-.47,12-2.6,16.36-6.96,2.74-2.74,4.68-6.18,5.96-9.82,1.47-4.15,1.34-7.94-.23-12.06-.7-1.83-1.57-3.61-2.62-5.26-.69-1.09-1.46-2.15-2.33-3.11-.07-.07-1-.94-.98-1-13.76,37.23-35.82,35.69-35.82,35.69Z"/>
      <path class="cls-7" d="M53.31,50.56c1.36-1.19,3.4-1.96,4.93-2.96,1.48-.97,2.92-1.99,4.31-3.07,2.32-1.82,4.51-3.82,6.43-6.07,3.96-4.62,6.65-10.32,6.65-16.49,0-3.88-1.06-7.68-2.72-11.16-1.89-3.97-4.67-6.56-8.69-8.37-1.79-.81-3.66-1.44-5.57-1.87-1.26-.28-2.55-.48-3.85-.56-.1,0-1.37.04-1.4-.02,16.6,36.05-.09,50.56-.09,50.56Z"/>
      <path class="cls-6" d="M53.77,45.56c.12-1.8,1.02-3.79,1.39-5.58.36-1.73.66-3.47.87-5.22.36-2.93.49-5.9.26-8.84-.47-6.07-2.6-12-6.96-16.36-2.74-2.74-6.18-4.68-9.82-5.96-4.15-1.47-7.94-1.34-12.06.23-1.83.7-3.61,1.57-5.26,2.62-1.09.69-2.15,1.46-3.11,2.33-.07.07-.94,1-1,.98,37.23,13.76,35.69,35.82,35.69,35.82Z"/>
      <path class="cls-5" d="M50.56,41.69c-1.19-1.36-1.96-3.4-2.96-4.93-.97-1.48-1.99-2.92-3.07-4.31-1.82-2.32-3.82-4.51-6.07-6.43-4.62-3.96-10.32-6.65-16.49-6.65-3.88,0-7.68,1.06-11.16,2.72-3.97,1.89-6.56,4.67-8.37,8.69-.81,1.79-1.44,3.66-1.87,5.57-.28,1.26-.48,2.55-.56,3.85,0,.1.04,1.37-.02,1.4,36.05-16.6,50.56.09,50.56.09Z"/>
      <path class="cls-3" d="M45.56,41.23c-1.8-.12-3.79-1.02-5.58-1.39-1.73-.36-3.47-.66-5.22-.87-2.93-.36-5.9-.49-8.84-.26-6.07.47-12,2.6-16.36,6.96-2.74,2.74-4.68,6.18-5.96,9.82-1.47,4.15-1.34,7.94.23,12.06.7,1.83,1.57,3.61,2.62,5.26.69,1.09,1.46,2.15,2.33,3.11.07.07,1,.94.98,1,13.76-37.23,35.82-35.69,35.82-35.69Z"/>
      <path class="cls-4" d="M41.69,44.44c-1.36,1.19-3.4,1.96-4.93,2.96-1.48.97-2.92,1.99-4.31,3.07-2.32,1.82-4.51,3.82-6.43,6.07-3.96,4.62-6.65,10.32-6.65,16.49,0,3.88,1.06,7.68,2.72,11.16,1.89,3.97,4.67,6.56,8.69,8.37,1.79.81,3.66,1.44,5.57,1.87,1.26.28,2.55.48,3.85.56.1,0,1.37-.04,1.4.02-16.6-36.05.09-50.56.09-50.56Z"/>
      <path class="cls-2" d="M41.23,49.45c-.12,1.8-1.02,3.79-1.39,5.58-.36,1.73-.66,3.47-.87,5.22-.36,2.93-.49,5.9-.26,8.84.47,6.07,2.6,12,6.96,16.36,2.74,2.74,6.18,4.68,9.82,5.96,4.15,1.47,7.94,1.34,12.06-.23,1.83-.7,3.61-1.57,5.26-2.62,1.09-.69,2.15-1.46,3.11-2.33.07-.07.94-1,1-.98-37.23-13.76-35.69-35.82-35.69-35.82Z"/>
      <path class="cls-1" d="M95,53.41c-36.05,16.6-50.56-.09-50.56-.09,1.19,1.36,1.96,3.4,2.96,4.93.97,1.48,1.99,2.92,3.07,4.31,1.82,2.32,3.82,4.51,6.07,6.43,4.62,3.96,10.32,6.65,16.49,6.65,3.88,0,7.68-1.06,11.16-2.72,3.97-1.89,6.56-4.67,8.37-8.69.81-1.79,1.44-3.66,1.87-5.57.28-1.26.48-2.55.56-3.85,0-.1-.04-1.37.02-1.4Z"/>
    </g>
  </g>
</svg>